<mxfile host="app.diagrams.net" agent="Mozilla/5.0 (Macintosh; Intel Mac OS X 10_15_7) AppleWebKit/537.36 (KHTML, like Gecko) Chrome/128.0.0.0 Safari/537.36 OPR/114.0.0.0" version="24.8.6">
  <diagram name="Page-1" id="rWDwzOvRxPvaUalWU3BS">
    <mxGraphModel dx="1432" dy="1890" grid="1" gridSize="10" guides="1" tooltips="1" connect="1" arrows="1" fold="1" page="1" pageScale="1" pageWidth="850" pageHeight="1100" background="#ffffff" math="0" shadow="0">
      <root>
        <mxCell id="0" />
        <mxCell id="1" parent="0" />
        <mxCell id="-8eSerMfTHxZQI7psXea-42" value="" style="rounded=0;whiteSpace=wrap;html=1;" parent="1" vertex="1">
          <mxGeometry x="240" y="-200" width="1240" height="1760" as="geometry" />
        </mxCell>
        <mxCell id="6OCbKNOqHDFEvS4rd-cn-2" value="pokemon&lt;b&gt;X&lt;/b&gt;: PokemonImpl" style="shape=umlLifeline;perimeter=lifelinePerimeter;whiteSpace=wrap;html=1;container=1;collapsible=0;recursiveResize=0;outlineConnect=0;rounded=1;shadow=0;comic=0;labelBackgroundColor=default;strokeWidth=1;fontFamily=Verdana;fontSize=12;align=center;movable=1;resizable=1;rotatable=1;deletable=1;editable=1;locked=0;connectable=1;" parent="1" vertex="1">
          <mxGeometry x="620" y="-60" width="100" height="1600" as="geometry" />
        </mxCell>
        <mxCell id="6OCbKNOqHDFEvS4rd-cn-29" value="" style="html=1;points=[];perimeter=orthogonalPerimeter;rounded=0;shadow=0;comic=0;labelBackgroundColor=default;strokeWidth=1;fontFamily=Verdana;fontSize=12;align=center;" parent="6OCbKNOqHDFEvS4rd-cn-2" vertex="1">
          <mxGeometry x="45" y="130" width="10" height="370" as="geometry" />
        </mxCell>
        <mxCell id="6OCbKNOqHDFEvS4rd-cn-30" value="" style="html=1;points=[];perimeter=orthogonalPerimeter;rounded=0;shadow=0;comic=0;labelBackgroundColor=default;strokeWidth=1;fontFamily=Verdana;fontSize=12;align=center;" parent="6OCbKNOqHDFEvS4rd-cn-2" vertex="1">
          <mxGeometry x="45" y="540" width="10" height="60" as="geometry" />
        </mxCell>
        <mxCell id="-8eSerMfTHxZQI7psXea-1" value="Alt" style="shape=umlFrame;whiteSpace=wrap;html=1;pointerEvents=0;" parent="6OCbKNOqHDFEvS4rd-cn-2" vertex="1">
          <mxGeometry x="-210" y="890" width="1020" height="450" as="geometry" />
        </mxCell>
        <mxCell id="6OCbKNOqHDFEvS4rd-cn-9" value="&lt;b&gt;doTurn(int)&lt;/b&gt;" style="html=1;verticalAlign=bottom;endArrow=block;labelBackgroundColor=default;fontFamily=Verdana;fontSize=12;edgeStyle=elbowEdgeStyle;elbow=vertical;" parent="6OCbKNOqHDFEvS4rd-cn-2" edge="1">
          <mxGeometry x="0.3601" relative="1" as="geometry">
            <mxPoint x="-104.5" y="760.0999999999998" as="sourcePoint" />
            <mxPoint x="255" y="760.0023809523808" as="targetPoint" />
            <mxPoint as="offset" />
          </mxGeometry>
        </mxCell>
        <mxCell id="-8eSerMfTHxZQI7psXea-19" value="&lt;span style=&quot;color: rgb(0, 0, 0); font-family: Helvetica; font-size: 11px; font-style: normal; font-variant-ligatures: normal; font-variant-caps: normal; font-weight: 400; letter-spacing: normal; orphans: 2; text-align: center; text-indent: 0px; text-transform: none; widows: 2; word-spacing: 0px; -webkit-text-stroke-width: 0px; white-space: nowrap; background-color: rgb(255, 255, 255); text-decoration-thickness: initial; text-decoration-style: initial; text-decoration-color: initial; display: inline !important; float: none;&quot;&gt;Skill&lt;/span&gt;" style="text;whiteSpace=wrap;html=1;" parent="6OCbKNOqHDFEvS4rd-cn-2" vertex="1">
          <mxGeometry x="460" y="900" width="50" height="40" as="geometry" />
        </mxCell>
        <mxCell id="-8eSerMfTHxZQI7psXea-13" value="" style="html=1;points=[];perimeter=orthogonalPerimeter;rounded=0;shadow=0;comic=0;labelBackgroundColor=default;strokeWidth=1;fontFamily=Verdana;fontSize=12;align=center;" parent="6OCbKNOqHDFEvS4rd-cn-2" vertex="1">
          <mxGeometry x="45" y="990" width="10" height="50" as="geometry" />
        </mxCell>
        <mxCell id="-8eSerMfTHxZQI7psXea-18" value="&lt;b&gt;&lt;font style=&quot;font-size: 12px;&quot; face=&quot;Verdana&quot;&gt;updateHealth(int)&lt;/font&gt;&lt;/b&gt;" style="html=1;verticalAlign=bottom;endArrow=open;dashed=1;endSize=8;curved=0;rounded=0;entryX=1.011;entryY=0.549;entryDx=0;entryDy=0;entryPerimeter=0;" parent="6OCbKNOqHDFEvS4rd-cn-2" target="-8eSerMfTHxZQI7psXea-13" edge="1">
          <mxGeometry relative="1" as="geometry">
            <mxPoint x="255" y="1019" as="sourcePoint" />
            <mxPoint x="175" y="1019" as="targetPoint" />
          </mxGeometry>
        </mxCell>
        <mxCell id="-8eSerMfTHxZQI7psXea-12" value="" style="html=1;verticalAlign=bottom;endArrow=none;labelBackgroundColor=default;fontFamily=Verdana;fontSize=12;edgeStyle=elbowEdgeStyle;elbow=vertical;dashed=1;startArrow=classic;startFill=1;endFill=0;" parent="6OCbKNOqHDFEvS4rd-cn-2" edge="1">
          <mxGeometry x="-0.6264" relative="1" as="geometry">
            <mxPoint x="269.99571428571426" y="960" as="sourcePoint" />
            <mxPoint x="709.5000000000005" y="959.578947368421" as="targetPoint" />
            <mxPoint as="offset" />
          </mxGeometry>
        </mxCell>
        <mxCell id="-8eSerMfTHxZQI7psXea-9" value="&lt;meta charset=&quot;utf-8&quot;&gt;&lt;b style=&quot;forced-color-adjust: none; color: rgb(0, 0, 0); font-family: Verdana; font-size: 12px; font-style: normal; font-variant-ligatures: normal; font-variant-caps: normal; letter-spacing: normal; orphans: 2; text-align: center; text-indent: 0px; text-transform: none; widows: 2; word-spacing: 0px; -webkit-text-stroke-width: 0px; white-space: nowrap; background-color: rgb(255, 255, 255); text-decoration-thickness: initial; text-decoration-style: initial; text-decoration-color: initial;&quot;&gt;selectAttack()&lt;/b&gt;" style="html=1;verticalAlign=bottom;endArrow=block;labelBackgroundColor=default;fontFamily=Verdana;fontSize=12;edgeStyle=elbowEdgeStyle;elbow=vertical;" parent="6OCbKNOqHDFEvS4rd-cn-2" edge="1">
          <mxGeometry x="-0.0561" y="5" relative="1" as="geometry">
            <mxPoint x="275" y="930" as="sourcePoint" />
            <mxPoint x="709.5000000000005" y="930.1052631578948" as="targetPoint" />
            <mxPoint as="offset" />
          </mxGeometry>
        </mxCell>
        <mxCell id="-8eSerMfTHxZQI7psXea-10" value="&lt;div&gt;&lt;br&gt;&lt;/div&gt;&lt;div&gt;&lt;br&gt;&lt;/div&gt;" style="edgeLabel;html=1;align=center;verticalAlign=middle;resizable=0;points=[];labelBackgroundColor=default;" parent="-8eSerMfTHxZQI7psXea-9" vertex="1" connectable="0">
          <mxGeometry x="-0.4655" y="1" relative="1" as="geometry">
            <mxPoint x="19" y="-9" as="offset" />
          </mxGeometry>
        </mxCell>
        <mxCell id="-8eSerMfTHxZQI7psXea-33" value="&lt;b&gt;setActiveDefense()&lt;/b&gt;" style="html=1;verticalAlign=bottom;endArrow=block;labelBackgroundColor=default;fontFamily=Verdana;fontSize=12;elbow=vertical;edgeStyle=orthogonalEdgeStyle;curved=1;exitX=0.9;exitY=0.051;exitPerimeter=0;exitDx=0;exitDy=0;" parent="6OCbKNOqHDFEvS4rd-cn-2" edge="1">
          <mxGeometry relative="1" as="geometry">
            <mxPoint x="274" y="1222" as="sourcePoint" />
            <mxPoint x="270" y="1260" as="targetPoint" />
            <Array as="points">
              <mxPoint x="346" y="1222" />
              <mxPoint x="346" y="1260" />
            </Array>
          </mxGeometry>
        </mxCell>
        <mxCell id="-8eSerMfTHxZQI7psXea-34" value="&lt;span style=&quot;color: rgb(0, 0, 0); font-family: Helvetica; font-size: 11px; font-style: normal; font-variant-ligatures: normal; font-variant-caps: normal; font-weight: 400; letter-spacing: normal; orphans: 2; text-align: center; text-indent: 0px; text-transform: none; widows: 2; word-spacing: 0px; -webkit-text-stroke-width: 0px; white-space: nowrap; background-color: rgb(255, 255, 255); text-decoration-thickness: initial; text-decoration-style: initial; text-decoration-color: initial; display: inline !important; float: none;&quot;&gt;Skill&lt;/span&gt;" style="text;whiteSpace=wrap;html=1;" parent="6OCbKNOqHDFEvS4rd-cn-2" vertex="1">
          <mxGeometry x="480" y="935" width="30" height="20" as="geometry" />
        </mxCell>
        <mxCell id="-8eSerMfTHxZQI7psXea-35" value="&lt;span style=&quot;color: rgb(0, 0, 0); font-family: Helvetica; font-size: 11px; font-style: normal; font-variant-ligatures: normal; font-variant-caps: normal; font-weight: 400; letter-spacing: normal; orphans: 2; text-align: center; text-indent: 0px; text-transform: none; widows: 2; word-spacing: 0px; -webkit-text-stroke-width: 0px; white-space: nowrap; background-color: rgb(255, 255, 255); text-decoration-thickness: initial; text-decoration-style: initial; text-decoration-color: initial; display: inline !important; float: none;&quot;&gt;Skill&lt;/span&gt;" style="text;whiteSpace=wrap;html=1;" parent="6OCbKNOqHDFEvS4rd-cn-2" vertex="1">
          <mxGeometry x="480" y="1160" width="30" height="20" as="geometry" />
        </mxCell>
        <mxCell id="6OCbKNOqHDFEvS4rd-cn-3" value="pokemon&lt;b&gt;Y&lt;/b&gt;: PokemonImpl" style="shape=umlLifeline;perimeter=lifelinePerimeter;whiteSpace=wrap;html=1;container=0;collapsible=0;recursiveResize=0;outlineConnect=0;rounded=1;shadow=0;comic=0;labelBackgroundColor=default;strokeWidth=1;fontFamily=Verdana;fontSize=12;align=center;strokeColor=default;" parent="1" vertex="1">
          <mxGeometry x="830" y="-60" width="100" height="1600" as="geometry" />
        </mxCell>
        <mxCell id="6OCbKNOqHDFEvS4rd-cn-4" value="SkillType" style="shape=umlLifeline;perimeter=lifelinePerimeter;whiteSpace=wrap;html=1;container=0;collapsible=0;recursiveResize=0;outlineConnect=0;rounded=1;shadow=0;comic=0;labelBackgroundColor=default;strokeWidth=1;fontFamily=Verdana;fontSize=12;align=center;" parent="1" vertex="1">
          <mxGeometry x="990" y="-60" width="100" height="1600" as="geometry" />
        </mxCell>
        <mxCell id="6OCbKNOqHDFEvS4rd-cn-5" value="battle:Battle" style="shape=umlLifeline;perimeter=lifelinePerimeter;whiteSpace=wrap;html=1;container=0;collapsible=0;recursiveResize=0;outlineConnect=0;rounded=1;shadow=0;comic=0;labelBackgroundColor=default;strokeWidth=1;fontFamily=Verdana;fontSize=12;align=center;" parent="1" vertex="1">
          <mxGeometry x="410" y="-60" width="190" height="1600" as="geometry" />
        </mxCell>
        <mxCell id="6OCbKNOqHDFEvS4rd-cn-6" value="&lt;b&gt;doTurn(int)&lt;/b&gt;" style="html=1;verticalAlign=bottom;endArrow=block;entryX=0;entryY=0;labelBackgroundColor=default;fontFamily=Verdana;fontSize=12;edgeStyle=elbowEdgeStyle;elbow=vertical;" parent="1" edge="1">
          <mxGeometry x="-0.0031" relative="1" as="geometry">
            <mxPoint x="510" y="90" as="sourcePoint" />
            <mxPoint x="665.0000000000002" y="90.00000000000091" as="targetPoint" />
            <mxPoint as="offset" />
          </mxGeometry>
        </mxCell>
        <mxCell id="6OCbKNOqHDFEvS4rd-cn-7" style="edgeStyle=orthogonalEdgeStyle;rounded=0;orthogonalLoop=1;jettySize=auto;html=1;labelBackgroundColor=default;" parent="1" source="6OCbKNOqHDFEvS4rd-cn-8" edge="1">
          <mxGeometry relative="1" as="geometry">
            <mxPoint x="325" y="1530" as="targetPoint" />
          </mxGeometry>
        </mxCell>
        <mxCell id="6OCbKNOqHDFEvS4rd-cn-8" value="User" style="shape=umlActor;verticalLabelPosition=bottom;verticalAlign=top;html=1;labelBackgroundColor=default;" parent="1" vertex="1">
          <mxGeometry x="310" y="-50" width="30" height="60" as="geometry" />
        </mxCell>
        <mxCell id="6OCbKNOqHDFEvS4rd-cn-12" value="&lt;span style=&quot;text-wrap: wrap;&quot;&gt;&lt;font style=&quot;font-size: 11px;&quot; face=&quot;Helvetica&quot;&gt;SkillType&lt;/font&gt;&lt;/span&gt;" style="html=1;verticalAlign=bottom;endArrow=none;labelBackgroundColor=default;fontFamily=Verdana;fontSize=12;edgeStyle=elbowEdgeStyle;elbow=vertical;dashed=1;startArrow=classic;startFill=1;endFill=0;" parent="1" edge="1">
          <mxGeometry x="-0.4089" relative="1" as="geometry">
            <mxPoint x="674.9957142857143" y="189.35000000000002" as="sourcePoint" />
            <mxPoint x="1030" y="189.67000000000002" as="targetPoint" />
            <mxPoint as="offset" />
          </mxGeometry>
        </mxCell>
        <mxCell id="6OCbKNOqHDFEvS4rd-cn-13" value="" style="html=1;verticalAlign=bottom;endArrow=block;labelBackgroundColor=default;fontFamily=Verdana;fontSize=12;edgeStyle=elbowEdgeStyle;elbow=vertical;" parent="1" edge="1">
          <mxGeometry x="-0.4228" relative="1" as="geometry">
            <mxPoint x="675" y="160" as="sourcePoint" />
            <mxPoint x="1035.0000000000002" y="160.1612903225806" as="targetPoint" />
            <mxPoint as="offset" />
          </mxGeometry>
        </mxCell>
        <mxCell id="6OCbKNOqHDFEvS4rd-cn-14" value="&lt;b&gt;&lt;font style=&quot;font-size: 12px;&quot; face=&quot;Verdana&quot;&gt;calculateMoveType()&lt;/font&gt;&lt;/b&gt;" style="edgeLabel;html=1;align=center;verticalAlign=middle;resizable=0;points=[];labelBackgroundColor=default;" parent="6OCbKNOqHDFEvS4rd-cn-13" vertex="1" connectable="0">
          <mxGeometry x="-0.4655" y="1" relative="1" as="geometry">
            <mxPoint x="19" y="-9" as="offset" />
          </mxGeometry>
        </mxCell>
        <mxCell id="6OCbKNOqHDFEvS4rd-cn-15" value="" style="html=1;points=[];perimeter=orthogonalPerimeter;rounded=0;shadow=0;comic=0;labelBackgroundColor=default;strokeWidth=1;fontFamily=Verdana;fontSize=12;align=center;" parent="1" vertex="1">
          <mxGeometry x="1035" y="150" width="10" height="50" as="geometry" />
        </mxCell>
        <mxCell id="6OCbKNOqHDFEvS4rd-cn-17" value="&lt;b&gt;checkStatus()&lt;/b&gt;" style="html=1;verticalAlign=bottom;endArrow=block;labelBackgroundColor=default;fontFamily=Verdana;fontSize=12;elbow=vertical;edgeStyle=orthogonalEdgeStyle;curved=1;exitX=0.9;exitY=0.051;exitPerimeter=0;exitDx=0;exitDy=0;" parent="1" edge="1">
          <mxGeometry relative="1" as="geometry">
            <mxPoint x="514" y="580" as="sourcePoint" />
            <mxPoint x="510" y="618" as="targetPoint" />
            <Array as="points">
              <mxPoint x="586" y="580" />
              <mxPoint x="586" y="618" />
            </Array>
          </mxGeometry>
        </mxCell>
        <mxCell id="6OCbKNOqHDFEvS4rd-cn-31" value="BattleStatus" style="html=1;verticalAlign=bottom;endArrow=none;labelBackgroundColor=default;fontFamily=Verdana;fontSize=12;edgeStyle=elbowEdgeStyle;elbow=vertical;exitX=0.5;exitY=0.304;exitDx=0;exitDy=0;exitPerimeter=0;dashed=1;startArrow=classic;startFill=1;endFill=0;entryX=-0.214;entryY=0.836;entryDx=0;entryDy=0;entryPerimeter=0;" parent="1" edge="1">
          <mxGeometry relative="1" as="geometry">
            <mxPoint x="507.14" y="530.17" as="sourcePoint" />
            <mxPoint x="660.0000000000001" y="530.3299999999998" as="targetPoint" />
          </mxGeometry>
        </mxCell>
        <mxCell id="6OCbKNOqHDFEvS4rd-cn-32" value="&lt;b&gt;reportStatus()&lt;/b&gt;" style="html=1;verticalAlign=bottom;endArrow=block;labelBackgroundColor=default;fontFamily=Verdana;fontSize=12;edgeStyle=elbowEdgeStyle;elbow=vertical;entryX=-0.186;entryY=0.171;entryDx=0;entryDy=0;entryPerimeter=0;" parent="1" edge="1">
          <mxGeometry relative="1" as="geometry">
            <mxPoint x="510" y="489.65999999999997" as="sourcePoint" />
            <mxPoint x="663.1400000000001" y="489.9200000000002" as="targetPoint" />
          </mxGeometry>
        </mxCell>
        <mxCell id="6OCbKNOqHDFEvS4rd-cn-34" value="" style="html=1;points=[];perimeter=orthogonalPerimeter;rounded=0;shadow=0;comic=0;labelBackgroundColor=default;strokeWidth=1;fontFamily=Verdana;fontSize=12;align=center;" parent="1" vertex="1">
          <mxGeometry x="500" y="20" width="10" height="1480" as="geometry" />
        </mxCell>
        <mxCell id="6OCbKNOqHDFEvS4rd-cn-36" value="" style="html=1;points=[];perimeter=orthogonalPerimeter;rounded=0;shadow=0;comic=0;labelBackgroundColor=default;strokeWidth=1;fontFamily=Verdana;fontSize=12;align=center;" parent="1" vertex="1">
          <mxGeometry x="875" y="670" width="10" height="140" as="geometry" />
        </mxCell>
        <mxCell id="6OCbKNOqHDFEvS4rd-cn-45" value="Assignment 3 | CS 6310 FALL 2024&lt;div&gt;Sequence Diagram &lt;b&gt;1&lt;/b&gt;&lt;/div&gt;&lt;div&gt;Group 55&lt;/div&gt;&lt;div&gt;11/17/2024&lt;/div&gt;" style="rounded=1;whiteSpace=wrap;html=1;fillColor=#f5f5f5;fontColor=#333333;strokeColor=#666666;labelBackgroundColor=default;" parent="1" vertex="1">
          <mxGeometry x="720" y="-190" width="240" height="90" as="geometry" />
        </mxCell>
        <mxCell id="6OCbKNOqHDFEvS4rd-cn-47" value="&lt;b&gt;Note&lt;/b&gt;:&lt;div&gt;&lt;i&gt;The battle starts here and PokemonX had the first turn; therefore, PokemonY&amp;nbsp;&lt;/i&gt;haven&#39;t select any defense move yet.&lt;/div&gt;" style="shape=note;whiteSpace=wrap;html=1;backgroundOutline=1;darkOpacity=0.05;" parent="1" vertex="1">
          <mxGeometry x="270" y="80" width="190" height="140" as="geometry" />
        </mxCell>
        <mxCell id="6OCbKNOqHDFEvS4rd-cn-52" value="" style="html=1;verticalAlign=bottom;endArrow=block;labelBackgroundColor=default;fontFamily=Verdana;fontSize=12;edgeStyle=elbowEdgeStyle;elbow=vertical;" parent="1" edge="1">
          <mxGeometry x="-0.4228" relative="1" as="geometry">
            <mxPoint x="510" y="40.322580645161224" as="sourcePoint" />
            <mxPoint x="510" y="40" as="targetPoint" />
            <mxPoint as="offset" />
          </mxGeometry>
        </mxCell>
        <mxCell id="6OCbKNOqHDFEvS4rd-cn-59" value="" style="html=1;verticalAlign=bottom;endArrow=block;labelBackgroundColor=default;fontFamily=Verdana;fontSize=12;edgeStyle=elbowEdgeStyle;elbow=vertical;entryX=-0.271;entryY=0.181;entryDx=0;entryDy=0;entryPerimeter=0;" parent="1" edge="1">
          <mxGeometry x="-0.4228" relative="1" as="geometry">
            <mxPoint x="328" y="51.15999999999997" as="sourcePoint" />
            <mxPoint x="500" y="50" as="targetPoint" />
            <mxPoint as="offset" />
          </mxGeometry>
        </mxCell>
        <mxCell id="6OCbKNOqHDFEvS4rd-cn-60" value="&lt;b&gt;&lt;font style=&quot;font-size: 12px;&quot; face=&quot;Verdana&quot;&gt;startBattle()&lt;/font&gt;&lt;/b&gt;" style="edgeLabel;html=1;align=center;verticalAlign=middle;resizable=0;points=[];labelBackgroundColor=default;" parent="6OCbKNOqHDFEvS4rd-cn-59" vertex="1" connectable="0">
          <mxGeometry x="-0.4655" y="1" relative="1" as="geometry">
            <mxPoint x="34" y="-9" as="offset" />
          </mxGeometry>
        </mxCell>
        <mxCell id="6OCbKNOqHDFEvS4rd-cn-67" value="Skill&lt;div&gt;PokemonX&lt;/div&gt;" style="shape=umlLifeline;perimeter=lifelinePerimeter;whiteSpace=wrap;html=1;container=0;collapsible=0;recursiveResize=0;outlineConnect=0;rounded=1;shadow=0;comic=0;labelBackgroundColor=default;strokeWidth=1;fontFamily=Verdana;fontSize=12;align=center;" parent="1" vertex="1">
          <mxGeometry x="1140" y="-60" width="100" height="1600" as="geometry" />
        </mxCell>
        <mxCell id="6OCbKNOqHDFEvS4rd-cn-68" value="Skill&lt;div&gt;PokemonY&lt;/div&gt;" style="shape=umlLifeline;perimeter=lifelinePerimeter;whiteSpace=wrap;html=1;container=0;collapsible=0;recursiveResize=0;outlineConnect=0;rounded=1;shadow=0;comic=0;labelBackgroundColor=default;strokeWidth=1;fontFamily=Verdana;fontSize=12;align=center;" parent="1" vertex="1">
          <mxGeometry x="1280" y="-60" width="100" height="1590" as="geometry" />
        </mxCell>
        <mxCell id="6OCbKNOqHDFEvS4rd-cn-69" value="" style="html=1;points=[];perimeter=orthogonalPerimeter;rounded=0;shadow=0;comic=0;labelBackgroundColor=default;strokeWidth=1;fontFamily=Verdana;fontSize=12;align=center;" parent="1" vertex="1">
          <mxGeometry x="1185" y="270" width="10" height="60" as="geometry" />
        </mxCell>
        <mxCell id="6OCbKNOqHDFEvS4rd-cn-74" value="&lt;b style=&quot;font-family: Verdana; font-size: 12px;&quot;&gt;selectAttack()&lt;/b&gt;" style="edgeLabel;html=1;align=center;verticalAlign=middle;resizable=0;points=[];labelBackgroundColor=default;" parent="1" vertex="1" connectable="0">
          <mxGeometry x="779.9964516129032" y="270.00258064516123" as="geometry" />
        </mxCell>
        <mxCell id="6OCbKNOqHDFEvS4rd-cn-75" value="" style="html=1;verticalAlign=bottom;endArrow=block;labelBackgroundColor=default;fontFamily=Verdana;fontSize=12;edgeStyle=elbowEdgeStyle;elbow=vertical;" parent="1" edge="1">
          <mxGeometry x="-0.4228" relative="1" as="geometry">
            <mxPoint x="680" y="280" as="sourcePoint" />
            <mxPoint x="1185" y="281" as="targetPoint" />
            <mxPoint as="offset" />
          </mxGeometry>
        </mxCell>
        <mxCell id="6OCbKNOqHDFEvS4rd-cn-76" value="&lt;div&gt;&lt;br&gt;&lt;/div&gt;&lt;div&gt;&lt;br&gt;&lt;/div&gt;" style="edgeLabel;html=1;align=center;verticalAlign=middle;resizable=0;points=[];labelBackgroundColor=default;" parent="6OCbKNOqHDFEvS4rd-cn-75" vertex="1" connectable="0">
          <mxGeometry x="-0.4655" y="1" relative="1" as="geometry">
            <mxPoint x="19" y="-9" as="offset" />
          </mxGeometry>
        </mxCell>
        <mxCell id="6OCbKNOqHDFEvS4rd-cn-77" value="&lt;span style=&quot;font-family: Helvetica; font-size: 11px;&quot;&gt;Skill&lt;/span&gt;" style="html=1;verticalAlign=bottom;endArrow=none;labelBackgroundColor=default;fontFamily=Verdana;fontSize=12;edgeStyle=elbowEdgeStyle;elbow=vertical;dashed=1;startArrow=classic;startFill=1;endFill=0;" parent="1" edge="1">
          <mxGeometry x="-0.6461" y="10" relative="1" as="geometry">
            <mxPoint x="668.2777777777778" y="319.6666666666665" as="sourcePoint" />
            <mxPoint x="1180" y="320" as="targetPoint" />
            <mxPoint as="offset" />
          </mxGeometry>
        </mxCell>
        <mxCell id="6OCbKNOqHDFEvS4rd-cn-78" value="" style="html=1;verticalAlign=bottom;endArrow=block;labelBackgroundColor=default;fontFamily=Verdana;fontSize=12;edgeStyle=elbowEdgeStyle;elbow=vertical;" parent="1" edge="1">
          <mxGeometry x="-0.4228" relative="1" as="geometry">
            <mxPoint x="675" y="390" as="sourcePoint" />
            <mxPoint x="875.0000000000002" y="390.3225806451612" as="targetPoint" />
            <mxPoint as="offset" />
          </mxGeometry>
        </mxCell>
        <mxCell id="6OCbKNOqHDFEvS4rd-cn-79" value="&lt;b&gt;&lt;font style=&quot;font-size: 12px;&quot; face=&quot;Verdana&quot;&gt;updateHealth(int)&lt;/font&gt;&lt;/b&gt;" style="edgeLabel;html=1;align=center;verticalAlign=middle;resizable=0;points=[];labelBackgroundColor=default;" parent="6OCbKNOqHDFEvS4rd-cn-78" vertex="1" connectable="0">
          <mxGeometry x="-0.3086" y="3" relative="1" as="geometry">
            <mxPoint x="36" y="-7" as="offset" />
          </mxGeometry>
        </mxCell>
        <mxCell id="6OCbKNOqHDFEvS4rd-cn-38" value="" style="html=1;points=[];perimeter=orthogonalPerimeter;rounded=0;shadow=0;comic=0;labelBackgroundColor=default;strokeWidth=1;fontFamily=Verdana;fontSize=12;align=center;" parent="1" vertex="1">
          <mxGeometry x="875" y="370" width="10" height="50" as="geometry" />
        </mxCell>
        <mxCell id="6OCbKNOqHDFEvS4rd-cn-83" value="&lt;b&gt;Note&lt;/b&gt;:&lt;div&gt;&lt;i&gt;checkStatus() validate if battle can continue&amp;nbsp; or if is over.&lt;/i&gt;&lt;/div&gt;" style="shape=note;whiteSpace=wrap;html=1;backgroundOutline=1;darkOpacity=0.05;" parent="1" vertex="1">
          <mxGeometry x="265" y="530" width="200" height="140" as="geometry" />
        </mxCell>
        <mxCell id="-8eSerMfTHxZQI7psXea-3" value="" style="html=1;points=[];perimeter=orthogonalPerimeter;rounded=0;shadow=0;comic=0;labelBackgroundColor=default;strokeWidth=1;fontFamily=Verdana;fontSize=12;align=center;" parent="1" vertex="1">
          <mxGeometry x="1035" y="755.21" width="10" height="50" as="geometry" />
        </mxCell>
        <mxCell id="-8eSerMfTHxZQI7psXea-7" value="&lt;span style=&quot;text-wrap: wrap;&quot;&gt;&lt;font style=&quot;font-size: 11px;&quot; face=&quot;Helvetica&quot;&gt;SkillType&lt;/font&gt;&lt;/span&gt;" style="html=1;verticalAlign=bottom;endArrow=none;labelBackgroundColor=default;fontFamily=Verdana;fontSize=12;edgeStyle=elbowEdgeStyle;elbow=vertical;dashed=1;startArrow=classic;startFill=1;endFill=0;" parent="1" edge="1">
          <mxGeometry x="-0.4089" relative="1" as="geometry">
            <mxPoint x="889.9957142857143" y="795.21" as="sourcePoint" />
            <mxPoint x="1030" y="795.21" as="targetPoint" />
            <mxPoint as="offset" />
          </mxGeometry>
        </mxCell>
        <mxCell id="-8eSerMfTHxZQI7psXea-5" value="" style="html=1;verticalAlign=bottom;endArrow=block;labelBackgroundColor=default;fontFamily=Verdana;fontSize=12;edgeStyle=elbowEdgeStyle;elbow=vertical;" parent="1" edge="1">
          <mxGeometry x="-0.4228" relative="1" as="geometry">
            <mxPoint x="890" y="760.42" as="sourcePoint" />
            <mxPoint x="1030" y="760.42" as="targetPoint" />
            <mxPoint as="offset" />
          </mxGeometry>
        </mxCell>
        <mxCell id="-8eSerMfTHxZQI7psXea-6" value="&lt;b&gt;&lt;font style=&quot;font-size: 12px;&quot; face=&quot;Verdana&quot;&gt;calculateMoveType()&lt;/font&gt;&lt;/b&gt;" style="edgeLabel;html=1;align=center;verticalAlign=middle;resizable=0;points=[];labelBackgroundColor=default;" parent="-8eSerMfTHxZQI7psXea-5" vertex="1" connectable="0">
          <mxGeometry x="-0.4655" y="1" relative="1" as="geometry">
            <mxPoint x="33" y="-20" as="offset" />
          </mxGeometry>
        </mxCell>
        <mxCell id="-8eSerMfTHxZQI7psXea-2" value="" style="endArrow=none;dashed=1;html=1;dashPattern=1 3;strokeWidth=2;rounded=0;exitX=0.004;exitY=0.495;exitDx=0;exitDy=0;exitPerimeter=0;entryX=0.999;entryY=0.514;entryDx=0;entryDy=0;entryPerimeter=0;" parent="1" edge="1">
          <mxGeometry width="50" height="50" relative="1" as="geometry">
            <mxPoint x="405.0999999999999" y="1010" as="sourcePoint" />
            <mxPoint x="1419.9999999999995" y="1019.69" as="targetPoint" />
          </mxGeometry>
        </mxCell>
        <mxCell id="-8eSerMfTHxZQI7psXea-20" value="" style="html=1;points=[];perimeter=orthogonalPerimeter;rounded=0;shadow=0;comic=0;labelBackgroundColor=default;strokeWidth=1;fontFamily=Verdana;fontSize=12;align=center;" parent="1" vertex="1">
          <mxGeometry x="1325" y="860" width="10" height="60" as="geometry" />
        </mxCell>
        <mxCell id="-8eSerMfTHxZQI7psXea-23" value="" style="html=1;points=[];perimeter=orthogonalPerimeter;rounded=0;shadow=0;comic=0;labelBackgroundColor=default;strokeWidth=1;fontFamily=Verdana;fontSize=12;align=center;" parent="1" vertex="1">
          <mxGeometry x="875" y="1060" width="10" height="180" as="geometry" />
        </mxCell>
        <mxCell id="-8eSerMfTHxZQI7psXea-24" value="" style="html=1;points=[];perimeter=orthogonalPerimeter;rounded=0;shadow=0;comic=0;labelBackgroundColor=default;strokeWidth=1;fontFamily=Verdana;fontSize=12;align=center;" parent="1" vertex="1">
          <mxGeometry x="875" y="850" width="10" height="140" as="geometry" />
        </mxCell>
        <mxCell id="-8eSerMfTHxZQI7psXea-26" value="" style="html=1;verticalAlign=bottom;endArrow=none;labelBackgroundColor=default;fontFamily=Verdana;fontSize=12;edgeStyle=elbowEdgeStyle;elbow=vertical;dashed=1;startArrow=classic;startFill=1;endFill=0;" parent="1" edge="1">
          <mxGeometry x="-0.6264" relative="1" as="geometry">
            <mxPoint x="889.9957142857143" y="1120" as="sourcePoint" />
            <mxPoint x="1329.5000000000005" y="1119.578947368421" as="targetPoint" />
            <mxPoint as="offset" />
          </mxGeometry>
        </mxCell>
        <mxCell id="-8eSerMfTHxZQI7psXea-27" value="&lt;b style=&quot;forced-color-adjust: none; color: rgb(0, 0, 0); font-family: Verdana; font-size: 12px; font-style: normal; font-variant-ligatures: normal; font-variant-caps: normal; letter-spacing: normal; orphans: 2; text-align: center; text-indent: 0px; text-transform: none; widows: 2; word-spacing: 0px; -webkit-text-stroke-width: 0px; white-space: nowrap; background-color: rgb(255, 255, 255); text-decoration-thickness: initial; text-decoration-style: initial; text-decoration-color: initial;&quot;&gt;selectDefense()&lt;/b&gt;" style="html=1;verticalAlign=bottom;endArrow=block;labelBackgroundColor=default;fontFamily=Verdana;fontSize=12;edgeStyle=elbowEdgeStyle;elbow=vertical;" parent="1" edge="1">
          <mxGeometry x="-0.0561" y="5" relative="1" as="geometry">
            <mxPoint x="895" y="1090" as="sourcePoint" />
            <mxPoint x="1329.5000000000005" y="1090.1052631578948" as="targetPoint" />
            <mxPoint as="offset" />
          </mxGeometry>
        </mxCell>
        <mxCell id="-8eSerMfTHxZQI7psXea-28" value="&lt;div&gt;&lt;br&gt;&lt;/div&gt;&lt;div&gt;&lt;br&gt;&lt;/div&gt;" style="edgeLabel;html=1;align=center;verticalAlign=middle;resizable=0;points=[];labelBackgroundColor=default;" parent="-8eSerMfTHxZQI7psXea-27" vertex="1" connectable="0">
          <mxGeometry x="-0.4655" y="1" relative="1" as="geometry">
            <mxPoint x="19" y="-9" as="offset" />
          </mxGeometry>
        </mxCell>
        <mxCell id="-8eSerMfTHxZQI7psXea-29" value="" style="html=1;points=[];perimeter=orthogonalPerimeter;rounded=0;shadow=0;comic=0;labelBackgroundColor=default;strokeWidth=1;fontFamily=Verdana;fontSize=12;align=center;" parent="1" vertex="1">
          <mxGeometry x="1325" y="1080" width="10" height="60" as="geometry" />
        </mxCell>
        <mxCell id="-8eSerMfTHxZQI7psXea-21" value="[ SkillType = Offense ]" style="text;html=1;align=center;verticalAlign=middle;resizable=1;points=[];autosize=1;strokeColor=none;fillColor=none;labelBackgroundColor=default;movable=1;rotatable=1;deletable=1;editable=1;locked=0;connectable=1;" parent="1" vertex="1">
          <mxGeometry x="520" y="840" width="140" height="30" as="geometry" />
        </mxCell>
        <mxCell id="-8eSerMfTHxZQI7psXea-22" value="[ SkillType = Defense ]" style="text;html=1;align=center;verticalAlign=middle;resizable=0;points=[];autosize=1;strokeColor=none;fillColor=none;labelBackgroundColor=default;" parent="1" vertex="1">
          <mxGeometry x="520" y="1020" width="140" height="30" as="geometry" />
        </mxCell>
        <mxCell id="-8eSerMfTHxZQI7psXea-38" value="" style="html=1;points=[];perimeter=orthogonalPerimeter;rounded=0;shadow=0;comic=0;labelBackgroundColor=default;strokeWidth=1;fontFamily=Verdana;fontSize=12;align=center;" parent="1" vertex="1">
          <mxGeometry x="663.9300000000001" y="1332" width="10" height="60" as="geometry" />
        </mxCell>
        <mxCell id="-8eSerMfTHxZQI7psXea-39" value="&lt;b&gt;checkStatus()&lt;/b&gt;" style="html=1;verticalAlign=bottom;endArrow=block;labelBackgroundColor=default;fontFamily=Verdana;fontSize=12;elbow=vertical;edgeStyle=orthogonalEdgeStyle;curved=1;exitX=0.9;exitY=0.051;exitPerimeter=0;exitDx=0;exitDy=0;" parent="1" edge="1">
          <mxGeometry relative="1" as="geometry">
            <mxPoint x="512.9300000000001" y="1432" as="sourcePoint" />
            <mxPoint x="508.93" y="1470" as="targetPoint" />
            <Array as="points">
              <mxPoint x="584.9300000000001" y="1432" />
              <mxPoint x="584.9300000000001" y="1470" />
            </Array>
          </mxGeometry>
        </mxCell>
        <mxCell id="-8eSerMfTHxZQI7psXea-40" value="BattleStatus" style="html=1;verticalAlign=bottom;endArrow=none;labelBackgroundColor=default;fontFamily=Verdana;fontSize=12;edgeStyle=elbowEdgeStyle;elbow=vertical;exitX=0.5;exitY=0.304;exitDx=0;exitDy=0;exitPerimeter=0;dashed=1;startArrow=classic;startFill=1;endFill=0;entryX=-0.214;entryY=0.836;entryDx=0;entryDy=0;entryPerimeter=0;" parent="1" edge="1">
          <mxGeometry relative="1" as="geometry">
            <mxPoint x="506.07" y="1382.17" as="sourcePoint" />
            <mxPoint x="658.9300000000001" y="1382.33" as="targetPoint" />
          </mxGeometry>
        </mxCell>
        <mxCell id="-8eSerMfTHxZQI7psXea-41" value="&lt;b&gt;reportStatus()&lt;/b&gt;" style="html=1;verticalAlign=bottom;endArrow=block;labelBackgroundColor=default;fontFamily=Verdana;fontSize=12;edgeStyle=elbowEdgeStyle;elbow=vertical;entryX=-0.186;entryY=0.171;entryDx=0;entryDy=0;entryPerimeter=0;" parent="1" edge="1">
          <mxGeometry relative="1" as="geometry">
            <mxPoint x="508.93" y="1341.6599999999999" as="sourcePoint" />
            <mxPoint x="662.0700000000002" y="1341.92" as="targetPoint" />
          </mxGeometry>
        </mxCell>
      </root>
    </mxGraphModel>
  </diagram>
</mxfile>
